<?xml version="1.0" standalone="no"?><!DOCTYPE svg PUBLIC "-//W3C//DTD SVG 1.1//EN" "http://www.w3.org/Graphics/SVG/1.1/DTD/svg11.dtd"><svg class="icon" width="200px" height="200.00px" viewBox="0 0 1024 1024" version="1.1" xmlns="http://www.w3.org/2000/svg"><path d="M0 0.000284m170.666619 0l682.666477 0q170.666619 0 170.66662 170.66662l0 682.666477q0 170.666619-170.66662 170.666619l-682.666477 0q-170.666619 0-170.666619-170.666619l0-682.666477q0-170.666619 170.666619-170.66662Z" fill="#C9EFEA" /><path d="M743.736682 636.074774c-70.371536 93.866641-220.728828 62.236427-317.070134 66.730649 0 0-17.123551 1.080889-34.30399 3.868443 0 0 6.456887-2.702221 14.791107-5.916443 67.64087-23.551993 99.669306-28.131548 140.771516-49.265764 77.425756-39.395545 153.969735-125.610632 169.89862-215.29594-29.496881 86.271976-118.840856 160.426622-200.248834 190.577725-55.807984 20.593772-156.558179 40.590211-156.558178 40.590211l-4.095999-2.133333c-68.607981-33.422213-70.65598-182.101283 54.015985-230.087047 54.613318-21.020439 106.837304-9.471997 165.831065-23.523549 62.947538-14.961774 135.765296-62.236427 165.404398-123.875521 33.223102 98.588417 73.159091 252.956374 1.564444 348.330569zM356.721679 721.63564a24.49066 24.49066 0 0 1-18.972439 9.016886 24.547549 24.547549 0 0 1-24.376883-24.462215c0-13.368885 11.007997-24.462215 24.376883-24.462216a24.49066 24.49066 0 0 1 18.943994 39.964433v-0.056888zM744.931349 257.137991a261.887927 261.887927 0 0 1-30.350214 53.902207A284.47281 284.47281 0 0 0 512.824746 227.555777h-0.056888C356.323457 227.555777 227.555492 356.409074 227.555492 513.052586c0 78.165312 31.999991 152.97418 88.60442 206.876387l10.524442 9.329776A283.676366 283.676366 0 0 0 510.435414 796.444508c148.764403 0 273.806146-116.565301 284.444365-265.159038 7.736887-72.732424-13.596441-164.721732-49.94843-274.119035z" fill="#58BB4A" /></svg>